<svg xmlns="http://www.w3.org/2000/svg"><symbol id="add" viewBox="0 0 181.7 180.4"><rect width="112.1" height="12.38" x="34.3" y="88.1" rx="5.9"/><rect width="112.1" height="12.38" x="34.3" y="88.1" rx="5.9" transform="rotate(90 90.3 94.3)"/></symbol><symbol id="instagram" viewBox="0 0 181.7 180.4"><path d="M90.8 7C46.1 7 9.9 44.3 9.9 90.2s36.2 83.2 80.9 83.2 81-37.3 81-83.2S135.6 7 90.8 7zm22.8 141.5H68.1a35.7 35.7 0 0 1-35.6-35.6V67.5a35.8 35.8 0 0 1 35.6-35.7h45.5a35.8 35.8 0 0 1 35.6 35.7v45.4a35.7 35.7 0 0 1-35.6 35.6z"/><path d="M109.7 90.1a18.9 18.9 0 1 1-18.9-18.9 18.8 18.8 0 0 1 18.9 18.9z"/><path d="M113.6 42.9H67.3a24.3 24.3 0 0 0-24.2 24.3v46.2a24.3 24.3 0 0 0 24.2 24.3h46.3a24.3 24.3 0 0 0 24.3-24.3V67.2a24.3 24.3 0 0 0-24.3-24.3zm-22.8 76.7a29.4 29.4 0 1 1 29.5-29.4 29.4 29.4 0 0 1-29.5 29.4zm31.6-52.4a7.3 7.3 0 1 1 7.2-7.2 7.2 7.2 0 0 1-7.2 7.2z"/><path d="M109.7 90.1a18.9 18.9 0 1 1-18.9-18.9 18.8 18.8 0 0 1 18.9 18.9z"/><path d="M113.6 42.9H67.3a24.3 24.3 0 0 0-24.2 24.3v46.2a24.3 24.3 0 0 0 24.2 24.3h46.3a24.3 24.3 0 0 0 24.3-24.3V67.2a24.3 24.3 0 0 0-24.3-24.3zm-22.8 76.7a29.4 29.4 0 1 1 29.5-29.4 29.4 29.4 0 0 1-29.5 29.4zm31.6-52.4a7.3 7.3 0 1 1 7.2-7.2 7.2 7.2 0 0 1-7.2 7.2z"/><path d="M109.7 90.1a18.9 18.9 0 1 1-18.9-18.9 18.8 18.8 0 0 1 18.9 18.9z"/><path d="M109.7 90.1a18.9 18.9 0 1 1-18.9-18.9 18.8 18.8 0 0 1 18.9 18.9z"/></symbol><symbol id="back-arrow" viewBox="0 0 181.7 180.4"><path d="M52.4 88.1l64.5-64.4a6.5 6.5 0 0 0 0-9.1l-1.2-1.2a6.5 6.5 0 0 0-9.1 0L36.4 83.5a6.4 6.4 0 0 0-1.8 4.6 6.1 6.1 0 0 0 1.8 4.6l70.2 70.2a6.5 6.5 0 0 0 9.1 0l1.2-1.2a6.5 6.5 0 0 0 0-9.1z"/></symbol><symbol id="hamburger-menu" viewBox="0 0 181.7 180.4"><rect width="124.5" height="12.38" x="22" y="54.9" rx="6.2"/><rect width="124.5" height="12.38" x="22" y="88.1" rx="6.2"/><rect width="124.5" height="12.38" x="22" y="121.4" rx="6.2"/></symbol><symbol id="number-four" viewBox="0 0 181.7 180.4"><path d="M114.8 125.7v49.1H94.7v-49.1H28.9v-5.3L110.8 6h4v102.8h3a35.9 35.9 0 0 0 10.2-1.1 7.4 7.4 0 0 0 4.7-3.8 30.7 30.7 0 0 0 2-7.9h4.3c0 14.1.3 24.4 1 30.9q-3.3-.7-25.2-1.2zm-20.1-16.9v-72l-50.9 72z"/></symbol><symbol id="number-one" viewBox="0 0 181.7 180.4"><path d="M102.9 130.3c0 7.9 1.8 13.4 5.4 16.3s9.9 4.4 18.8 4.4v5.3c-18.2-.7-29.7-1-34.8-1s-15.6.2-32.7.7l-6.1.3V151q13.3 0 20.1-4.5c4.4-3.1 6.6-8.4 6.6-16.2V69.4c0-8.1-.8-14-2.5-17.8a13.1 13.1 0 0 0-8.4-7.5c-4-1.3-10.1-1.9-18.3-1.9v-5.6c12.3-.3 22.4-1.4 30.4-3.2a62.5 62.5 0 0 0 21.5-9.6z"/></symbol><symbol id="facebook" viewBox="0 0 181.7 180.4"><path d="M178.2 89.7a83.2 83.2 0 0 1-69.9 82.1v-57.9h19.6l3.6-24.2h-23.2V75.5c0-4.9 2-14 11.6-14h11.6V40.6s-29.4-6.8-41.1 7.9c-4.6 5.2-7.5 6.9-7.5 41.2H61.1v24.2h21.2v58a83.2 83.2 0 1 1 95.9-82.2z"/></symbol><symbol id="forward-arrow" viewBox="0 0 181.7 180.4"><path d="M115.1 88.1L50.6 23.7a6.5 6.5 0 0 1 0-9.1l1.2-1.2a6.5 6.5 0 0 1 9.1 0l70.2 70.1a7 7 0 0 1 1.9 4.6 6.6 6.6 0 0 1-1.9 4.6l-70.2 70.2a6.5 6.5 0 0 1-9.1 0l-1.2-1.2a6.5 6.5 0 0 1 0-9.1z"/></symbol><symbol id="number-three" viewBox="0 0 181.7 180.4"><path d="M114.7 12.8a25.2 25.2 0 0 1 10.2 21c0 9.2-3.6 17.5-10.9 24.9a69.4 69.4 0 0 1-26.6 16.6c12.9.4 23.9 3.8 33 10.3s13.6 15.9 13.6 28-4.7 22.9-14 32.5-21.1 17-35.5 22.3a124.9 124.9 0 0 1-43.7 7.9v-4.5a89.9 89.9 0 0 0 33.8-7.4 65.4 65.4 0 0 0 25.7-19.9c6.5-8.7 9.8-19 9.8-30.9 0-9.9-2.5-18.1-7.3-24.6a26.4 26.4 0 0 0-19.4-10.7 56 56 0 0 1-5.2 2.2 19.2 19.2 0 0 1-6.7 1.6c-2.6 0-4-1.1-4-3.3a4 4 0 0 1 1.9-3.5 8.6 8.6 0 0 1 4.7-1.2l4.1.3 4.7.7c6.5-5.1 11.4-10.7 14.6-16.9a41.9 41.9 0 0 0 4.8-19.4c0-7.7-2-13.4-5.8-17.1s-9.3-5.6-16.1-5.6a33.8 33.8 0 0 0-19.2 5.7c-5.7 3.8-10.5 9.4-14.3 16.7l-4.3-2Q57.1 5 88.7 5c10.5 0 19.2 2.6 26 7.8z"/></symbol><symbol id="profile" viewBox="0 0 181.7 180.4"><path d="M90.8 7.6a82.7 82.7 0 1 0 82.8 82.7A82.7 82.7 0 0 0 90.8 7.6zm0 21a30.1 30.1 0 1 1-30 30.1 30.1 30.1 0 0 1 30-30.1zm44.8 107.9H48.9c-4.1 0-9.1-1.6-9.9-6.2-1.6-9.3 8.5-20.5 15.9-25.2 10.8-6.8 24.3-8.3 36.8-8.4h1c20 0 42.2 5.9 49.2 26.8 1.9 6 1.6 13-6.3 13z"/></symbol><symbol id="number-two" viewBox="0 0 181.7 180.4"><path d="M114.6 31.3c6.8 5.6 10.1 13.4 10.1 23.5a40.6 40.6 0 0 1-5.4 20 87.9 87.9 0 0 1-13.1 17.8c-5.1 5.3-11.9 11.8-20.3 19.4s-12 11.2-15.3 14.4a81.5 81.5 0 0 0-9.1 10.5h51.1a35.9 35.9 0 0 0 10.2-1.1 8 8 0 0 0 4.7-3.8 30.6 30.6 0 0 0 2-8h4.3c0 15.5.3 26.7 1 33.5q-5.6-1.2-37.5-1.2h-59V152c2.9-3 7.7-7.8 14.6-14.4 9.6-8.8 17.6-16.9 24-24a117.9 117.9 0 0 0 16.5-24.3 63.2 63.2 0 0 0 6.9-29c0-18.1-8.4-27.2-25.2-27.2-13.8 0-25 7.9-33.8 23.7l-4-2.3A60 60 0 0 1 56 32q12-9 30.9-9c11.8 0 21 2.8 27.7 8.3z"/></symbol><symbol id="subtract" viewBox="0 0 181.7 180.4"><rect width="112.1" height="12.38" x="38.8" y="88.1" rx="5.9"/></symbol><symbol id="search" viewBox="0 0 181.7 180.4"><path fill="none" stroke="#000" stroke-miterlimit="10" stroke-width="13" d="M164.5 155.8l-56.7-56.6a6.3 6.3 0 0 0-2.6-1.5 51.6 51.6 0 1 0-9.3 8.4 5.6 5.6 0 0 0 1.7 3.3l56.6 56.7a6 6 0 0 0 8.3 0l2-2.1a5.9 5.9 0 0 0 0-8.2z"/></symbol><symbol id="twitter" viewBox="0 0 181.7 180.4"><path d="M90.3 6.5A82.7 82.7 0 1 0 173 89.2 82.7 82.7 0 0 0 90.3 6.5zm52.6 63.8s2.1 30.2-18.4 50.2c-42.9 44.4-87.8 11.1-88 11.1 26.7 1 35.3-10.2 35.3-10.4-17.1.8-22.8-16.3-22.8-16.3 6.1.8 10.5-1.5 10.2-1.6-19.9-2.2-19.9-23.9-19.9-23.9 3.8 3.2 11.6 2.9 11.6 2.9C32.7 71.1 44.5 50 44.5 50c22.2 26.6 49.6 25.4 49.6 25.4S89.8 54.1 108 47.2s28.5 5.7 28.5 5.4a43.8 43.8 0 0 0 14.4-5.4c.9 6.6-9.5 13.9-9.5 13.9 4.9-.4 13.2-3.8 13.2-3.8-1.7 6.1-11.7 13-11.7 13z"/></symbol></svg>