<svg id="Layer_1" data-name="Layer 1" xmlns="http://www.w3.org/2000/svg" width="2.7in" height="2.7in" viewBox="0 0 192.2 192.2"><title>EasyGiftLogo</title><path d="M122.6,122.7S105,95.3,90.1,98.9,81,115.6,88,119.7s17.3,5.9,20,10.4a49.2,49.2,0,0,1,14.8-4.6s-7.2-9.3-22.4-10.6c-7.7-.9-19-7-12.8-12.8s17.5,7.4,19.5,12.2C107.1,114.3,117.8,117.6,122.6,122.7Z" fill="#c26b86"/><path d="M124.4,124.8s4.9-20.6,26.5-23.5c9.1-1,11.3,1.1,11.7,2.9l-.7,2.7s-7.6-5.7-18.6,11.2A44.7,44.7,0,0,0,124.4,124.8Z" fill="#c26b86"/><path d="M163.6,104.6c0,.1.2.3.3.4a3.7,3.7,0,0,1,.5,1.1,12.9,12.9,0,0,1,1.2,3.8,12.6,12.6,0,0,1-.5,5.5A17.5,17.5,0,0,1,161,122a37.2,37.2,0,0,1-9.7,6.9,46.6,46.6,0,0,1-7.3,3l-6.4,1.7c-2.7.7-5.4,1.2-8.1,1.7l-3,.4s-.7-6.6-1.8-9c0,0,5.5-5.2,19-7.2C152,118.4,163.3,110.9,163.6,104.6Z" fill="#c26b86"/><path d="M126.9,136.8a102.4,102.4,0,0,0,12.5-2.3s18.5,14.6,34.9,11.8c0,0-7.3,5.4-14.4,4.1,0,0,4.1,5,9.8,4.9C169.7,155.3,150.8,161.2,126.9,136.8Z" fill="#c26b86"/><path d="M91.5,147.3s-8.7,2.4-10.3,13.4-1.7,12.7-1.7,12.7,3.5-6.8,6.2-7.7c.1,0,3.8,0,5.7,1.2C91.4,166.9,88.2,159.7,91.5,147.3Z" fill="#c26b86"/><path d="M105.3,90.5c34.6-5.9,31.6-29,31.2-32.1-1-10.3-9.4-23.4-38.4-20.7S49.7,66.3,49.7,66.3s-18.4-18-12.1-42.4c2.7-12.5,6-14,7.5-16.3S48,2.8,44.7.5,35.6,3.2,31.4,15.1,23,51,44.3,74.3c0,0-20,27-15.1,65.5S59.9,195.7,89,191.7s42.9-35.1,34.6-64.9c0,0-32.6,6.8-41,25.7,0-.1,6.7-8.4,16.3-8.8s15.1-1.5,18-4.3c0,0,5.6,33.1-24.4,40.6-14,3.5-29.2-.5-37.9-12.3-4.4-5.8-6.9-12.8-8.5-19.8a82,82,0,0,1,.3-40c1.5-5.9,3.3-11.6,5.3-17.3.2-.5,3.1-6.9,2.8-7.2S76.7,95.4,105.3,90.5Zm-25.2-10C63,77.9,60.2,74.6,60.2,74.6s15.5-24.4,40.9-25.3,22.4,12.3,21.7,14.9S113.3,84.2,80.1,80.5Z" fill="#c26b86"/></svg>