<svg id="Layer_1" data-name="Layer 1" xmlns="http://www.w3.org/2000/svg" width="0.2in" height="0.2in" viewBox="0 0 15.8 16"><title>EasyGiftLogo</title><path d="M10.3,10.2s-1.4-2.3-2.7-2S6.9,9.6,7.5,10s1.4.5,1.6.8a4.8,4.8,0,0,1,1.3-.4,2.9,2.9,0,0,0-1.9-.8C7.9,9.5,6.9,9,7.4,8.5s1.5.6,1.7,1A4.1,4.1,0,0,1,10.3,10.2Z" fill="#c26b86"/><path d="M10.5,10.4a2.8,2.8,0,0,1,2.2-2c.8,0,.9.1,1,.3v.2s-.6-.5-1.5.9A3.8,3.8,0,0,0,10.5,10.4Z" fill="#c26b86"/><path d="M13.8,8.7h0a.4.4,0,0,1,.1.3v.5l-.4.6-.8.5-.6.3h-.5l-.7.2h-.2a4.5,4.5,0,0,0-.2-.8,3.8,3.8,0,0,1,1.6-.6A2,2,0,0,0,13.8,8.7Z" fill="#c26b86"/><path d="M10.7,11.4l1-.2a4.8,4.8,0,0,0,2.9,1,1.9,1.9,0,0,1-1.2.3,1.4,1.4,0,0,0,.9.4S12.7,13.4,10.7,11.4Z" fill="#c26b86"/><path d="M7.8,12.3a1.3,1.3,0,0,0-.9,1.1v1s.2-.5.5-.6h.4A2.9,2.9,0,0,1,7.8,12.3Z" fill="#c26b86"/><path d="M8.9,7.5c2.9-.5,2.6-2.4,2.6-2.6s-.8-2-3.2-1.8a6.7,6.7,0,0,0-4,2.4A3.7,3.7,0,0,1,3.3,2,2.5,2.5,0,0,1,3.9.6c.1-.2.2-.4,0-.6S3.1.3,2.8,1.3a4.7,4.7,0,0,0,1,4.9,8.1,8.1,0,0,0-1.2,5.4C3,14.8,5.1,16.3,7.5,16s3.6-3,2.9-5.5c0,0-2.7.6-3.4,2.2A2.1,2.1,0,0,1,8.4,12a3.9,3.9,0,0,0,1.5-.4s.4,2.8-2.1,3.4a3,3,0,0,1-3.1-1A3.6,3.6,0,0,1,4,12.3,6.2,6.2,0,0,1,4,9c.1-.5.3-1,.4-1.5s.3-.5.3-.6A7,7,0,0,0,8.9,7.5ZM6.8,6.7c-1.4-.2-1.6-.5-1.6-.5A4.5,4.5,0,0,1,8.5,4.1c2.2-.1,1.9,1,1.9,1.2S9.6,7,6.8,6.7Z" fill="#c26b86"/></svg>