<svg id="Layer_1" data-name="Layer 1" xmlns="http://www.w3.org/2000/svg" width="0.9in" height="0.9in" viewBox="0 0 64.1 64"><title>EasyGiftLogo</title><path d="M41.2,40.8s-5.9-9.1-10.8-7.9-3.1,5.6-.7,6.9,5.7,2,6.6,3.5a14.9,14.9,0,0,1,5-1.5,10.8,10.8,0,0,0-7.5-3.5c-2.6-.4-6.3-2.4-4.3-4.3s5.9,2.4,6.5,4C36,38,39.6,39.1,41.2,40.8Z" fill="#c26b86"/><path d="M41.8,41.5a10.7,10.7,0,0,1,8.8-7.8c3.1-.3,3.8.4,3.9,1l-.2.9s-2.5-1.9-6.2,3.7A15.9,15.9,0,0,0,41.8,41.5Z" fill="#c26b86"/><path d="M54.9,34.8h0l.2.4a2.8,2.8,0,0,1,.4,1.3,5.5,5.5,0,0,1-.1,1.8A6.4,6.4,0,0,1,54,40.6a11.8,11.8,0,0,1-3.2,2.3l-2.5,1-2.1.6-2.7.5-1,.2a12.7,12.7,0,0,0-.6-3s1.8-1.8,6.3-2.4C51,39.4,54.8,36.9,54.9,34.8Z" fill="#c26b86"/><path d="M42.6,45.5a35,35,0,0,0,4.2-.7s6.1,4.8,11.6,3.9c0,0-2.4,1.8-4.8,1.4a4.9,4.9,0,0,0,3.3,1.6S50.6,53.7,42.6,45.5Z" fill="#c26b86"/><path d="M30.8,49a5.2,5.2,0,0,0-3.4,4.5c-.5,3.7-.6,4.2-.6,4.2s1.2-2.3,2.1-2.6a7,7,0,0,1,1.9.4S29.7,53.1,30.8,49Z" fill="#c26b86"/><path d="M35.4,30.1c11.6-2,10.5-9.6,10.4-10.7-.3-3.4-3.1-7.8-12.8-6.9s-16.1,9.6-16.1,9.6-6.1-6-4-14.2c.9-4.2,2-4.6,2.5-5.4s1-1.6-.2-2.4S12.2,1,10.8,5,8,16.9,15.1,24.7a32.6,32.6,0,0,0-5,21.8C11.7,59.3,20.3,65.2,30,63.8S44.3,52.1,41.5,42.2c0,0-10.8,2.3-13.6,8.5a8.5,8.5,0,0,1,5.4-2.9c2.9-.1,5-.5,6-1.4s1.9,11-8.1,13.5c-4.7,1.2-9.8-.1-12.7-4.1a16.9,16.9,0,0,1-2.8-6.6,28.5,28.5,0,0,1,.1-13.3,55.8,55.8,0,0,1,1.8-5.8c0-.1,1-2.3.9-2.3A28.1,28.1,0,0,0,35.4,30.1ZM27,26.8c-5.7-.9-6.6-2-6.6-2s5.2-8.1,13.6-8.4,7.5,4.1,7.3,5S38.1,28,27,26.8Z" fill="#c26b86"/></svg>