<svg id="Layer_1" data-name="Layer 1" xmlns="http://www.w3.org/2000/svg" width="0.4in" height="0.4in" viewBox="0 0 31.7 32"><title>EasyGiftLogo</title><path d="M21.4,20.4s-2.9-4.5-5.4-3.9-1.5,2.7-.3,3.4,2.8,1,3.3,1.8a8.2,8.2,0,0,1,2.5-.8,5.7,5.7,0,0,0-3.8-1.8C16.4,19,14.6,18,15.6,17s2.9,1.2,3.2,2A8.3,8.3,0,0,1,21.4,20.4Z" fill="#c26b86"/><path d="M21.7,20.8a5.2,5.2,0,0,1,4.4-3.9c1.5-.2,1.9.1,2,.4v.5s-1.3-1-3.1,1.9A7.2,7.2,0,0,0,21.7,20.8Z" fill="#c26b86"/><path d="M28.2,17.4h.1v.2c.1.2.1.4.2.6a2.8,2.8,0,0,1-.1.9,2.6,2.6,0,0,1-.7,1.1,4.6,4.6,0,0,1-1.6,1.1,3.1,3.1,0,0,1-1.2.5,2.3,2.3,0,0,1-1.1.3,6.1,6.1,0,0,1-1.3.3h-.5l-.3-1.5a5.6,5.6,0,0,1,3.1-1.2C26.3,19.7,28.2,18.5,28.2,17.4Z" fill="#c26b86"/><path d="M22.1,22.8a12.3,12.3,0,0,0,2.1-.4s3.1,2.4,5.8,2a3.3,3.3,0,0,1-2.4.6,2.1,2.1,0,0,0,1.7.8S26.1,26.8,22.1,22.8Z" fill="#c26b86"/><path d="M16.2,24.5a2.7,2.7,0,0,0-1.7,2.3,15.7,15.7,0,0,1-.3,2.1s.6-1.2,1.1-1.3a2,2,0,0,1,.9.2A5.8,5.8,0,0,1,16.2,24.5Z" fill="#c26b86"/><path d="M18.5,15.1c5.8-1,5.3-4.9,5.2-5.4s-1.5-3.9-6.4-3.4-8,4.7-8,4.7-3.1-3-2-7A4.9,4.9,0,0,1,8.5,1.3C8.8.9,9,.5,8.5.1S6.9.5,6.2,2.5a9.4,9.4,0,0,0,2.2,9.9A16.3,16.3,0,0,0,5.9,23.3c.8,6.4,5.1,9.3,9.9,8.6s7.2-5.8,5.8-10.8c0,0-5.4,1.1-6.8,4.3a4.2,4.2,0,0,1,2.7-1.5,4.6,4.6,0,0,0,3-.7s.9,5.5-4.1,6.8a6,6,0,0,1-6.3-2.1,8.1,8.1,0,0,1-1.4-3.3,14.7,14.7,0,0,1,0-6.6l.9-2.9.5-1.2A14.2,14.2,0,0,0,18.5,15.1Zm-4.2-1.7c-2.8-.4-3.3-1-3.3-1s2.6-4.1,6.8-4.2,3.8,2,3.6,2.5S19.9,14,14.3,13.4Z" fill="#c26b86"/></svg>